# xmcd CD database file
#
# Track frame offsets:
#	150
#	20084
#	43935
#	68773
#	89432
#	110119
#	125052
#	141295
#	161466
#	181248
#	200403
#	220520
#	233866
#	256253
#	283266
#
# Disc length: 4045 seconds
#
# Revision: 0
# Processed by: cddbd v1.5.2PL0 Copyright (c) Steve Scherf et al.
# Submitted via: CDex 1.51
#
DISCID=e40fcb0f
DTITLE=Tuba Skinny - Tuba Skinny
DYEAR=2010
DGENRE=Blues
TTITLE0=Careless Love
TTITLE1=You Let Me Down
TTITLE2=After You've Gone
TTITLE3=Chloe_Song of the Swamp
TTITLE4=Slow Poke
TTITLE5=Billies Blues
TTITLE6=Avalon
TTITLE7=Rock Me
TTITLE8=Sugar in my Bowl
TTITLE9=Broken Hearted Blues
TTITLE10=Love me or Leave me
TTITLE11=Gotta Give Me Some
TTITLE12=Good ol' Wagon
TTITLE13=If You Don't, I know I Will
TTITLE14=Tight Like This
EXTD=YEAR: 2010
EXTT0=
EXTT1=
EXTT2=
EXTT3=
EXTT4=
EXTT5=
EXTT6=
EXTT7=
EXTT8=
EXTT9=
EXTT10=
EXTT11=
EXTT12=
EXTT13=
EXTT14=
PLAYORDER=
